<svg width="256" height="256" viewBox="0 0 256 256" fill="none" xmlns="http://www.w3.org/2000/svg">
  <path fill-rule="evenodd" clip-rule="evenodd" d="M128 48C83.8172 48 48 83.8172 48 128C48 172.183 83.8172 208 128 208H144V240H128C66.1441 240 16 189.856 16 128C16 66.1441 66.1441 16 128 16C189.856 16 240 66.1441 240 128V144H208V128C208 83.8172 172.183 48 128 48ZM176 128V176H128V144H176V128C176 101.49 154.51 80 128 80V112C136.837 112 144 119.163 144 128Z" fill="#3CCB7F"/>
  <path d="M160 144H200L160 200V144Z" fill="#3CCB7F"/>
</svg>
